<?xml version="1.0" encoding="UTF-8" standalone="no"?>
<svg width="414px" height="736px" viewBox="0 0 414 736" version="1.1" xmlns="http://www.w3.org/2000/svg" xmlns:xlink="http://www.w3.org/1999/xlink">
    <!-- Generator: sketchtool 3.8.3 (29802) - http://www.bohemiancoding.com/sketch -->
    <title>view3</title>
    <desc>Created with sketchtool.</desc>
    <defs></defs>
    <g id="Page-1" stroke="none" stroke-width="1" fill="none" fill-rule="evenodd">
        <g id="view3">
            <g id="menu-opener" transform="translate(21.000000, 11.000000)" fill="#494949">
                <circle id="Oval-30" cx="1.5" cy="1.5" r="1.5"></circle>
                <circle id="Oval-30-Copy" cx="7.5" cy="1.5" r="1.5"></circle>
                <circle id="Oval-30-Copy-2" cx="13.5" cy="1.5" r="1.5"></circle>
                <circle id="Oval-30-Copy-3" cx="13.5" cy="7.5" r="1.5"></circle>
                <circle id="Oval-30-Copy-4" cx="7.5" cy="7.5" r="1.5"></circle>
                <circle id="Oval-30-Copy-5" cx="1.5" cy="7.5" r="1.5"></circle>
                <circle id="Oval-30-Copy-6" cx="1.5" cy="13.5" r="1.5"></circle>
                <circle id="Oval-30-Copy-7" cx="7.5" cy="13.5" r="1.5"></circle>
                <circle id="Oval-30-Copy-8" cx="13.5" cy="13.5" r="1.5"></circle>
            </g>
            <text id="2:32" font-family="FZLTXHK--GBK1-0, Lantinghei SC" font-size="35" font-weight="300" line-spacing="35" fill="#9A9595">
                <tspan x="20" y="112">2:32</tspan>
            </text>
            <text id="Today-is-a-fresh-sta" font-family="Avenir-Medium, Avenir" font-size="18" font-weight="400" line-spacing="23" fill="#9A9595">
                <tspan x="21" y="140">Today is a fresh start</tspan>
            </text>
            <g id="Search" transform="translate(313.000000, 11.000000)">
                <text font-family="Avenir-Medium, Avenir" font-size="18" font-weight="400" line-spacing="23" fill="#9A9595">
                    <tspan x="25" y="18">Search</tspan>
                </text>
                <g id="symbol" transform="translate(0.000000, 4.000000)" stroke="#9A9595" stroke-width="2">
                    <path d="M9.77941176,10.8088235 L14.87474,15.9041518" id="Line" stroke-linecap="square"></path>
                    <path d="M6.17647059,12.3529412 C9.5876411,12.3529412 12.3529412,9.5876411 12.3529412,6.17647059 C12.3529412,2.76530007 9.5876411,0 6.17647059,0 C2.76530007,0 0,2.76530007 0,6.17647059 C0,9.5876411 2.76530007,12.3529412 6.17647059,12.3529412 Z" id="innerst-ring"></path>
                </g>
            </g>
        </g>
    </g>
</svg>