<?xml version="1.0" encoding="UTF-8" standalone="no"?>
<svg width="414px" height="736px" viewBox="0 0 414 736" version="1.1" xmlns="http://www.w3.org/2000/svg" xmlns:xlink="http://www.w3.org/1999/xlink">
    <!-- Generator: sketchtool 3.8.3 (29802) - http://www.bohemiancoding.com/sketch -->
    <title>view3</title>
    <desc>Created with sketchtool.</desc>
    <defs></defs>
    <g id="Page-1" stroke="none" stroke-width="1" fill="none" fill-rule="evenodd">
        <g id="view3">
            <g id="Status-Bar/Black/100%" fill="#030303">
                <path d="M385.493713,5.5 C384.668758,5.5 384,6.16802155 384,7.00530324 L384,13.4946968 C384,14.3260528 384.67338,15 385.493713,15 L405.006287,15 C405.831242,15 406.5,14.3319784 406.5,13.4946968 L406.5,7.00530324 C406.5,6.17394722 405.82662,5.5 405.006287,5.5 L385.493713,5.5 Z M407,8.5 L407,12 L407.75,12 C408.164214,12 408.5,11.6644053 408.5,11.25774 L408.5,9.24225998 C408.5,8.83232111 408.167101,8.5 407.75,8.5 L407,8.5 Z M385.508152,6 C384.951365,6 384.5,6.45699692 384.5,7.00844055 L384.5,13.4915594 C384.5,14.0485058 384.949058,14.5 385.508152,14.5 L404.991848,14.5 C405.548635,14.5 406,14.0430031 406,13.4915594 L406,7.00844055 C406,6.45149422 405.550942,6 404.991848,6 L385.508152,6 Z M385.506744,6.5 C385.226877,6.5 385,6.71637201 385,6.99209595 L385,13.5079041 C385,13.7796811 385.230225,14 385.506744,14 L404.993256,14 C405.273123,14 405.5,13.783628 405.5,13.5079041 L405.5,6.99209595 C405.5,6.72031886 405.269775,6.5 404.993256,6.5 L385.506744,6.5 Z" id="Battery" fill-rule="evenodd"></path>
                <text id="100%" font-family=".AppleSystemUIFont" font-size="12" font-weight="normal">
                    <tspan x="350.853516" y="15.5">100%</tspan>
                </text>
                <text id="9:41-AM" font-family=".AppleSystemUIFont" font-size="12" font-weight="normal">
                    <tspan x="183" y="16">9:41 AM</tspan>
                </text>
                <path d="M96.1444208,12.4385043 C95.626374,11.8454456 94.8523616,11.4689119 93.987563,11.4689119 C93.1390073,11.4689119 92.3778594,11.8314341 91.8601652,12.4053177 L94.0225391,14.5 L96.1444208,12.4385043 Z M98.3234964,10.3214425 C97.2447794,9.19174563 95.7014387,8.48445596 93.987563,8.48445596 C92.2882723,8.48445596 90.7566264,9.17975893 89.6792698,10.2926936 L90.7692987,11.3486 C91.567205,10.5053708 92.713648,9.97668394 93.987563,9.97668394 C95.2768836,9.97668394 96.4356305,10.518235 97.2346215,11.3793293 L98.3234964,10.3214425 L98.3234964,10.3214425 Z M100.5,8.20687933 C98.8629578,6.53943672 96.5505699,5.5 93.987563,5.5 C91.4375103,5.5 89.1355496,6.52895605 87.5,8.18164431 L88.5895579,9.23709441 C89.9460798,7.85431655 91.8628921,6.99222798 93.987563,6.99222798 C96.1260026,6.99222798 98.0538809,7.86552609 99.4118698,9.26404272 L100.5,8.20687933 Z" id="Wi-Fi" fill-rule="evenodd"></path>
                <text id="Carrier" font-family=".AppleSystemUIFont" font-size="12" font-weight="normal">
                    <tspan x="44" y="15.5">Sketch</tspan>
                </text>
                <path d="M9.25,13 C10.7687831,13 12,11.7687831 12,10.25 C12,8.73121694 10.7687831,7.5 9.25,7.5 C7.73121694,7.5 6.5,8.73121694 6.5,10.25 C6.5,11.7687831 7.73121694,13 9.25,13 Z M16.25,13 C17.7687831,13 19,11.7687831 19,10.25 C19,8.73121694 17.7687831,7.5 16.25,7.5 C14.7312169,7.5 13.5,8.73121694 13.5,10.25 C13.5,11.7687831 14.7312169,13 16.25,13 Z M23.25,13 C24.7687831,13 26,11.7687831 26,10.25 C26,8.73121694 24.7687831,7.5 23.25,7.5 C21.7312169,7.5 20.5,8.73121694 20.5,10.25 C20.5,11.7687831 21.7312169,13 23.25,13 Z M30.25,13 C31.7687831,13 33,11.7687831 33,10.25 C33,8.73121694 31.7687831,7.5 30.25,7.5 C28.7312169,7.5 27.5,8.73121694 27.5,10.25 C27.5,11.7687831 28.7312169,13 30.25,13 Z M37.25,13 C38.7687831,13 40,11.7687831 40,10.25 C40,8.73121694 38.7687831,7.5 37.25,7.5 C35.7312169,7.5 34.5,8.73121694 34.5,10.25 C34.5,11.7687831 35.7312169,13 37.25,13 Z" id="Mobile-Signal" fill-rule="evenodd"></path>
            </g>
            <g id="arrow" transform="translate(17.000000, 36.000000)" stroke-linecap="square" stroke="#2F2F2F">
                <g id="Group" transform="translate(2.000000, 2.000000)">
                    <path d="M0,7.5 L14,7.5" id="Line" stroke-width="3"></path>
                    <path d="M0.5,6.5 L5.73944431,0.454487338" id="Line" stroke-width="3"></path>
                    <path d="M0,14.0455127 L5.23944431,8" id="Line-Copy" stroke-width="3" transform="translate(2.619722, 11.022756) scale(1, -1) translate(-2.619722, -11.022756) "></path>
                </g>
            </g>
            <text id="KEFI" font-family="ProximaNova-Bold, Proxima Nova" font-size="16" font-weight="bold" line-spacing="16" letter-spacing="0.425000012">
                <tspan x="187.386" y="43.552" fill="#2F2F2F">KEFI</tspan>
                <tspan x="224.862" y="45" font-family="ProximaNova-Regular, Proxima Nova" font-size="18" font-weight="normal" fill="#2F2F2F"></tspan>
                <tspan x="175.5705" y="61" font-family="ProximaNova-Regular, Proxima Nova" font-size="12" font-weight="normal" fill="#9C9C9C">19 - 30 MIN</tspan>
            </text>
            <path d="M0,71.5 L415.5,71.5" id="Line" stroke="#E0E0E0" stroke-linecap="square"></path>
            <text id="GREEK-DIPS" font-family="ProximaNova-Regular, Proxima Nova" font-size="18" font-weight="normal" fill="#2F2F2F">
                <tspan x="158.112" y="126">GREEK DIPS</tspan>
            </text>
            <path d="M190,166 L225,166" id="Line" stroke="#6F6F6F" stroke-width="2" stroke-linecap="square"></path>
            <g id="Group" transform="translate(12.000000, 207.000000)">
                <path d="M0,95 L390,95" id="Line-Copy" stroke="#E0E0E0" stroke-linecap="square"></path>
                <text id="Sundried-Tomato-Humm" font-family="ProximaNova-Regular, Proxima Nova" font-size="18" font-weight="normal" line-spacing="16">
                    <tspan x="9" y="18" fill="#2F2F2F">Sundried Tomato Hummus</tspan>
                    <tspan x="12.078" y="37.02" font-size="15" fill="#5F5E5E"></tspan>
                    <tspan x="9.513" y="52.67" font-size="15" fill="#5F5E5E">Served with pita.</tspan>
                    <tspan x="12.078" y="69.02" font-size="15" fill="#5F5E5E"></tspan>
                    <tspan x="9.513" y="84.67" font-size="15" fill="#5F5E5E">$6.95</tspan>
                </text>
            </g>
            <g id="Group-Copy" transform="translate(12.000000, 321.000000)">
                <path d="M0,95 L390,95" id="Line-Copy" stroke="#E0E0E0" stroke-linecap="square"></path>
                <text id="Melintzanosalata" font-family="ProximaNova-Regular, Proxima Nova" font-size="18" font-weight="normal" line-spacing="16">
                    <tspan x="9" y="18" fill="#2F2F2F">Melintzanosalata</tspan>
                    <tspan x="12.078" y="37.02" font-size="15" fill="#5F5E5E"></tspan>
                    <tspan x="9.513" y="52.67" font-size="15" fill="#5F5E5E">Served with pita.</tspan>
                    <tspan x="12.078" y="69.02" font-size="15" fill="#5F5E5E"></tspan>
                    <tspan x="9.513" y="84.67" font-size="15" fill="#5F5E5E">$6.95</tspan>
                </text>
            </g>
            <g id="Group-Copy-2" transform="translate(12.000000, 435.000000)">
                <path d="M0,95 L390,95" id="Line-Copy" stroke="#E0E0E0" stroke-linecap="square"></path>
                <text id="Taramosalata" font-family="ProximaNova-Regular, Proxima Nova" font-size="18" font-weight="normal" line-spacing="16">
                    <tspan x="9" y="18" fill="#2F2F2F">Taramosalata</tspan>
                    <tspan x="12.078" y="37.02" font-size="15" fill="#5F5E5E"></tspan>
                    <tspan x="9.513" y="52.67" font-size="15" fill="#5F5E5E">Served with pita.</tspan>
                    <tspan x="12.078" y="69.02" font-size="15" fill="#5F5E5E"></tspan>
                    <tspan x="9.513" y="84.67" font-size="15" fill="#5F5E5E">$6.95</tspan>
                </text>
            </g>
            <g id="Group-Copy-3" transform="translate(12.000000, 549.000000)">
                <path d="M0,95 L390,95" id="Line-Copy" stroke="#E0E0E0" stroke-linecap="square"></path>
                <text id="Tzatziki" font-family="ProximaNova-Regular, Proxima Nova" font-size="18" font-weight="normal" line-spacing="16">
                    <tspan x="9" y="18" fill="#2F2F2F">Tzatziki</tspan>
                    <tspan x="12.078" y="37.02" fill="#2F2F2F"></tspan>
                    <tspan x="9.513" y="52.67" font-size="15" fill="#5F5E5E">Served with pita or chips.</tspan>
                    <tspan x="12.078" y="69.02" font-size="15" fill="#5F5E5E"></tspan>
                    <tspan x="9.513" y="84.67" font-size="15" fill="#5F5E5E">$6.95</tspan>
                </text>
            </g>
            <g id="Group-Copy-4" transform="translate(12.000000, 662.000000)" font-size="18" font-family="ProximaNova-Regular, Proxima Nova" line-spacing="16" font-weight="normal">
                <text id="Combination-of-All-F">
                    <tspan x="9" y="18" fill="#2F2F2F">Combination of All Four</tspan>
                    <tspan x="12.078" y="37.02" font-size="14" fill="#5F5E5E"></tspan>
                    <tspan x="12.078" y="53.02" font-size="15" line-spacing="19" fill="#5F5E5E">Combination of sundried tomato hummus,</tspan>
                    <tspan x="12.078" y="72.02" font-size="15" line-spacing="19" fill="#5F5E5E">melintzanosalata, taramosalata, and tzatziki served with…</tspan>
                </text>
            </g>
        </g>
    </g>
</svg>